<svg width="48" height="48" viewBox="0 0 48 48" fill="none" xmlns="http://www.w3.org/2000/svg">
  <rect x="1" y="1" width="46" height="46" rx="10" fill="#111111"/>
  <rect x="10" y="8" width="28" height="3" rx="1.5" fill="#ffffff"/>
  <rect x="10" y="11" width="28" height="13" rx="2" fill="#ffffff"/>
  <rect x="12" y="12.5" width="24" height="10" rx="1.5" fill="#222222"/>
  <rect x="23" y="12.5" width="2" height="10" fill="#111111" opacity="0.5"/>
  <rect x="5" y="14" width="5" height="2" rx="1" fill="#ffffff"/>
  <rect x="3" y="12" width="4" height="5.5" rx="1" fill="#ffffff"/>
  <rect x="38" y="14" width="5" height="2" rx="1" fill="#ffffff"/>
  <rect x="41" y="12" width="4" height="5.5" rx="1" fill="#ffffff"/>
  <rect x="10" y="24" width="28" height="8" rx="1.5" fill="#ffffff"/>
  <rect x="11" y="25" width="6.5" height="6" rx="1" fill="#ccddff" opacity="0.9"/>
  <rect x="30.5" y="25" width="6.5" height="6" rx="1" fill="#ccddff" opacity="0.9"/>
  <rect x="18" y="24.5" width="12" height="7.5" rx="1" fill="#333333"/>
  <line x1="18" y1="26.5" x2="30" y2="26.5" stroke="#666666" stroke-width="0.8"/>
  <line x1="18" y1="28.5" x2="30" y2="28.5" stroke="#666666" stroke-width="0.8"/>
  <line x1="18" y1="30.5" x2="30" y2="30.5" stroke="#666666" stroke-width="0.8"/>
  <rect x="8" y="32" width="32" height="5" rx="2" fill="#ffffff"/>
  <rect x="19" y="33" width="10" height="3" rx="0.5" fill="#444444"/>
  <rect x="10" y="37" width="6" height="3" rx="1" fill="#ffffff" opacity="0.5"/>
  <rect x="32" y="37" width="6" height="3" rx="1" fill="#ffffff" opacity="0.5"/>
</svg>
